<svg width="24" height="24" viewBox="0 0 24 24" fill="none" xmlns="http://www.w3.org/2000/svg">
<rect y="24" width="24" height="24" rx="4" transform="rotate(-90 0 24)" fill="black" fill-opacity="0.5"/>
<path fill-rule="evenodd" clip-rule="evenodd" d="M19 5L19 19L5 19L5 5L19 5ZM20 4L20 5L20 19L20 20L19 20L5 20L4 20L4 19L4 5L4 4L5 4L19 4L20 4ZM14 6C14.5523 6 15 6.44772 15 7C15 7.55229 14.5523 8 14 8L10 8C9.44772 8 9 7.55229 9 7C9 6.44772 9.44772 6 10 6L14 6ZM14 9C14.5523 9 15 9.44772 15 10C15 10.5523 14.5523 11 14 11L10 11C9.44772 11 9 10.5523 9 10C9 9.44772 9.44772 9 10 9L14 9ZM15 13C15 12.4477 14.5523 12 14 12L10 12C9.44772 12 9 12.4477 9 13C9 13.5523 9.44772 14 10 14L14 14C14.5523 14 15 13.5523 15 13Z" fill="currentColor"/>
</svg>
