<svg width="24" height="24" viewBox="0 0 24 24" fill="none" xmlns="http://www.w3.org/2000/svg">
<rect y="24" width="24" height="24" rx="4" transform="rotate(-90 0 24)" fill="black" fill-opacity="0.5"/>
<path fill-rule="evenodd" clip-rule="evenodd" d="M19 5L19 19L5 19L5 5L19 5ZM20 4L20 5L20 19L20 20L19 20L5 20L4 20L4 19L4 5L4 4L5 4L19 4L20 4ZM14 8C14.5523 8 15 8.44772 15 9C15 9.55228 14.5523 10 14 10L10 10C9.44772 10 9 9.55229 9 9C9 8.44772 9.44771 8 10 8L14 8ZM14 11C14.5523 11 15 11.4477 15 12C15 12.5523 14.5523 13 14 13L10 13C9.44772 13 9 12.5523 9 12C9 11.4477 9.44771 11 10 11L14 11ZM15 15C15 14.4477 14.5523 14 14 14L10 14C9.44772 14 9 14.4477 9 15C9 15.5523 9.44772 16 10 16L14 16C14.5523 16 15 15.5523 15 15Z" fill="currentColor"/>
</svg>
