<svg width="24" height="24" viewBox="0 0 24 24" fill="none" xmlns="http://www.w3.org/2000/svg">
<rect width="24" height="24" rx="4" fill="black" fill-opacity="0.5"/>
<path fill-rule="evenodd" clip-rule="evenodd" d="M5 5H19V19H5V5ZM4 4H5H19H20V5V19V20H19H5H4V19V5V4ZM6 10C6 9.44772 6.44772 9 7 9C7.55228 9 8 9.44772 8 10V14C8 14.5523 7.55228 15 7 15C6.44772 15 6 14.5523 6 14V10ZM9 10C9 9.44772 9.44772 9 10 9C10.5523 9 11 9.44772 11 10V14C11 14.5523 10.5523 15 10 15C9.44772 15 9 14.5523 9 14V10ZM13 9C12.4477 9 12 9.44772 12 10V14C12 14.5523 12.4477 15 13 15C13.5523 15 14 14.5523 14 14V10C14 9.44772 13.5523 9 13 9Z" fill="currentColor"/>
</svg>
