<svg width="24" height="24" viewBox="0 0 24 24" fill="none" xmlns="http://www.w3.org/2000/svg">
<rect y="24" width="24" height="24" rx="4" transform="rotate(-90 0 24)" fill="black" fill-opacity="0.5"/>
<path fill-rule="evenodd" clip-rule="evenodd" d="M5 19L5 5L19 5L19 19L5 19ZM4 20L4 19L4 5L4 4L5 4L19 4L20 4L20 5L20 19L20 20L19 20L5 20L4 20ZM10 18C9.44772 18 9 17.5523 9 17C9 16.4477 9.44772 16 10 16L14 16C14.5523 16 15 16.4477 15 17C15 17.5523 14.5523 18 14 18L10 18ZM10 15C9.44772 15 9 14.5523 9 14C9 13.4477 9.44771 13 10 13L14 13C14.5523 13 15 13.4477 15 14C15 14.5523 14.5523 15 14 15L10 15ZM9 11C9 11.5523 9.44771 12 10 12L14 12C14.5523 12 15 11.5523 15 11C15 10.4477 14.5523 10 14 10L10 10C9.44771 10 9 10.4477 9 11Z" fill="currentColor"/>
</svg>
