<svg width="24" height="24" viewBox="0 0 24 24" fill="none" xmlns="http://www.w3.org/2000/svg">
<rect width="24" height="24" rx="4" fill="black" fill-opacity="0.5"/>
<path fill-rule="evenodd" clip-rule="evenodd" d="M19 19L5 19L5 5L19 5L19 19ZM20 20L19 20L5 20L4 20L4 19L4 5L4 4L5 4L19 4L20 4L20 5L20 19L20 20ZM16 14C16 14.5523 15.5523 15 15 15C14.4477 15 14 14.5523 14 14L14 10C14 9.44772 14.4477 9 15 9C15.5523 9 16 9.44771 16 10L16 14ZM13 14C13 14.5523 12.5523 15 12 15C11.4477 15 11 14.5523 11 14L11 10C11 9.44771 11.4477 9 12 9C12.5523 9 13 9.44771 13 10L13 14ZM9 15C9.55228 15 10 14.5523 10 14L10 10C10 9.44771 9.55228 9 9 9C8.44771 9 8 9.44771 8 10L8 14C8 14.5523 8.44772 15 9 15Z" fill="currentColor"/>
</svg>
