<svg width="24" height="24" viewBox="0 0 24 24" fill="none" xmlns="http://www.w3.org/2000/svg">
<rect width="24" height="24" rx="4" fill="black" fill-opacity="0.5"/>
<path fill-rule="evenodd" clip-rule="evenodd" d="M19 19L5 19L5 5L19 5L19 19ZM20 20L19 20L5 20L4 20L4 19L4 5L4 4L5 4L19 4L20 4L20 5L20 19L20 20ZM18 14C18 14.5523 17.5523 15 17 15C16.4477 15 16 14.5523 16 14L16 10C16 9.44772 16.4477 9 17 9C17.5523 9 18 9.44771 18 10L18 14ZM15 14C15 14.5523 14.5523 15 14 15C13.4477 15 13 14.5523 13 14L13 10C13 9.44772 13.4477 9 14 9C14.5523 9 15 9.44772 15 10L15 14ZM11 15C11.5523 15 12 14.5523 12 14L12 10C12 9.44772 11.5523 9 11 9C10.4477 9 10 9.44772 10 10L10 14C10 14.5523 10.4477 15 11 15Z" fill="currentColor"/>
</svg>
